# xmcd
#
# Track frame offsets: 
#        150
#        13982
#        28108
#        42697
#        54657
#        68649
#        80536
#        92581
#        106083
#        119879
#        133313
#        146610
#        159845
#        170972
#        179958
#
# Disc length: 2577 seconds
#
# Revision: 7
# Processed by: cddbd v1.5.2PL0 Copyright (c) Steve Scherf et al.
# Submitted via: ExactAudioCopy v1.1
#
DISCID=e40a0f0f
DTITLE=Ella Fitzgerald - Ella Fitzgerald Volume 2
DYEAR=1999
DGENRE=Jazz
TTITLE0=The Starlit Hour
TTITLE1=Bei mir Bist du Schoen
TTITLE2=Dedicated to You
TTITLE3=A Tisket, A Tasket
TTITLE4=Stairway to the Stars
TTITLE5=Cryin' Mood
TTITLE6=Sing Song Swing
TTITLE7=It's Wonderful
TTITLE8=Basin Street Blues
TTITLE9=It's My Turn Now
TTITLE10=I Was Doing Alright
TTITLE11=Little White Lies
TTITLE12=That Old Black Magic
TTITLE13=Lover, Come Back to Me
TTITLE14=We Can't Go On This Way
EXTD=
EXTT0=
EXTT1=
EXTT2=
EXTT3=
EXTT4=
EXTT5=
EXTT6=
EXTT7=
EXTT8=
EXTT9=
EXTT10=
EXTT11=
EXTT12=
EXTT13=
EXTT14=
PLAYORDER=
